<?xml version="1.0" encoding="UTF-8"?>
<svg width="24px" height="24px" viewBox="0 0 24 24" version="1.1" xmlns="http://www.w3.org/2000/svg" xmlns:xlink="http://www.w3.org/1999/xlink">
    <title>Artboard Copy 6</title>
    <g id="Artboard-Copy-6" stroke="none" stroke-width="1" fill="none" fill-rule="evenodd">
        <path d="M22.7771487,23 C23.1065363,23 23.3926917,22.8816523 23.635615,22.6449568 C23.8785383,22.4082613 24,22.1208453 24,21.7827089 C24,21.4530259 23.8785383,21.1698367 23.635615,20.9331412 C23.3926917,20.6964457 23.1065363,20.578098 22.7771487,20.578098 L22.7771487,20.578098 L17.7004632,20.578098 C17.2640247,20.578098 16.9634586,20.392123 16.7987648,20.0201729 L16.7987648,20.0201729 L9.17756047,2.58501441 C8.95522388,2.08626321 8.63818837,1.69740634 8.22645394,1.4184438 C7.81471951,1.13948127 7.34534225,1 6.81832218,1 L6.81832218,1 L1.23520329,1 C0.889346372,1 0.597014925,1.11834774 0.358208955,1.35504323 C0.119402985,1.59173871 0,1.87915466 0,2.21729107 C0,2.55542747 0.119402985,2.84073007 0.358208955,3.07319885 C0.597014925,3.30566763 0.889346372,3.42190202 1.23520329,3.42190202 L1.23520329,3.42190202 L6.27483273,3.42190202 C6.47246526,3.42190202 6.64333505,3.47050913 6.7874421,3.56772334 C6.93154915,3.66493756 7.04889346,3.80230548 7.13947504,3.97982709 L7.13947504,3.97982709 L14.7730314,21.4403458 C15.0118374,21.9813641 15.3206382,22.376561 15.6994339,22.6259366 C16.0782295,22.8753122 16.5558415,23 17.1322697,23 L17.1322697,23 L22.7771487,23 Z" id="Path" fill="#000000" fill-rule="nonzero"></path>
        <rect id="Rectangle" fill="#000000" x="14" y="1" width="10" height="2.42" rx="1.21"></rect>
    </g>
</svg>