<?xml version="1.0" encoding="UTF-8"?>
<svg width="500px" height="500px" viewBox="0 0 500 500" version="1.1" xmlns="http://www.w3.org/2000/svg" xmlns:xlink="http://www.w3.org/1999/xlink">
    <!-- Generator: Sketch 64 (93537) - https://sketch.com -->
    <title>logo@500x500nospace</title>
    <desc>Created with Sketch.</desc>
    <g id="logo@500x500nospace" stroke="none" stroke-width="1" fill="none" fill-rule="evenodd">
        <rect fill="none" x="0" y="0" width="500" height="500"></rect>
        <path d="M249.708285,500 L249.708285,437.572929 C190.198366,437.572929 144.107351,421.139634 111.435239,388.273046 C78.7631272,355.406457 62.4270712,309.218203 62.4270712,249.708285 C62.4270712,190.198366 78.7631272,144.107351 111.435239,111.435239 C144.107351,78.7631272 190.198366,62.4270712 249.708285,62.4270712 C309.218203,62.4270712 355.406457,78.7631272 388.273046,111.435239 C421.139634,144.107351 437.572929,190.198366 437.572929,249.708285 C437.572929,282.380397 433.1972,303.18942 424.445741,312.135356 C415.694282,321.081291 405.873201,325.554259 394.982497,325.554259 C383.313886,325.554259 373.395566,321.470245 365.227538,313.302217 C357.05951,305.134189 352.975496,295.215869 352.975496,283.547258 L352.975496,283.547258 L352.975496,249.708285 C352.975496,218.980941 343.44613,194.28238 324.387398,175.612602 C305.328666,156.942824 280.435628,147.607935 249.708285,147.607935 C218.980941,147.607935 194.185142,156.942824 175.320887,175.612602 C156.456632,194.28238 147.024504,218.980941 147.024504,249.708285 C147.024504,280.435628 156.456632,305.328666 175.320887,324.387398 C194.185142,343.44613 218.980941,352.975496 249.708285,352.975496 C269.544924,352.975496 288.214702,348.113574 305.71762,338.389732 C315.052509,353.94788 327.596266,366.199922 343.348891,375.145858 C359.101517,384.091793 376.312719,388.564761 394.982497,388.564761 C420.264489,388.564761 444.087904,379.035395 466.452742,359.976663 C488.817581,340.917931 500,304.161805 500,249.708285 C500,198.755348 489.887203,154.511863 469.66161,116.97783 C449.436017,79.4437962 420.458965,50.5639829 382.730455,30.3383897 C345.001945,10.1127966 300.661221,-2.84217094e-14 249.708285,-2.84217094e-14 C198.755348,-2.84217094e-14 154.511863,10.1127966 116.97783,30.3383897 C79.4437962,50.5639829 50.5639829,79.4437962 30.3383897,116.97783 C10.1127966,154.511863 5.68434189e-14,198.755348 5.68434189e-14,249.708285 C5.68434189e-14,300.661221 10.1127966,345.001945 30.3383897,382.730455 C50.5639829,420.458965 79.4437962,449.436017 116.97783,469.66161 C154.511863,489.887203 198.755348,500 249.708285,500 L249.708285,500 Z M251.20438,292 C224.40146,292 211,278.304348 211,250.913043 C211,224.304348 224.40146,211 251.20438,211 C278.40146,211 292,224.304348 292,250.913043 C292,278.304348 278.40146,292 251.20438,292 Z" id="@" fill="#FFFFFF" fill-rule="nonzero" transform="translate(250.000000, 250.000000) rotate(-90.000000) translate(-250.000000, -250.000000) "></path>
    </g>
</svg>
